<svg xmlns="http://www.w3.org/2000/svg" viewBox="0 0 495 472">
            <title>hero-ilustration</title>
            <path fill="#FFF" d="M187.2 418.55l25.67 26.06L0 445.13l.07 26.83h245.14l.26-32-32.34-33.8z"></path>
            <path
                d="M246.44 225.1a13.26 13.26 0 0 0-6.48-11.3l-37-22a2.42 2.42 0 0 0-3.35.89l-48.24 84.91a2.43 2.43 0 0 0 .9 3.3l45.82 26.52c47 29.64 7.3 99.42-42.47 73.01l-45.3-25.67a2.42 2.42 0 0 0-3.3.9l-11.04 19.45a2.43 2.43 0 0 0 .96 3.33c8.48 4.59 39.7 21.57 57.65 32.84 25.57 16.05 89.74-5.31 92.82-60.92v-.19l-.97-125.07z">
            </path>
            <path fill="#6E85FF"
                d="M123.08 273.72l-14.98 25.96a3.61 3.61 0 0 1-4.93 1.32l-12.51-7.23a3.62 3.62 0 0 1-1.32-4.93l14.98-25.97c1-1.72 3.2-2.31 4.93-1.32l12.51 7.23a3.62 3.62 0 0 1 1.32 4.94">
            </path>
            <path
                d="M145 276.25l-52.8-30.5a6.17 6.17 0 0 1-2.59-2.92 34.3 34.3 0 0 0 32.11 46.39 34.3 34.3 0 0 0 26.21-12.14c-1-.02-2-.3-2.93-.83">
            </path>
            <path fill="#6E85FF"
                d="M139.4 270.27v29.98c0 2-1.63 3.61-3.61 3.61h-14.46a3.62 3.62 0 0 1-3.6-3.6v-29.99a3.62 3.62 0 0 1 3.6-3.61h14.46c1.98 0 3.6 1.62 3.6 3.61M109.96 265.69l-25.95 15c-1.72.98-3.93.39-4.93-1.33l-7.22-12.53c-1-1.72-.4-3.93 1.32-4.93l25.95-14.99c1.71-1 3.93-.4 4.92 1.32l7.23 12.53c1 1.72.4 3.94-1.32 4.93">
            </path>
            <path fill="#FFF"
                d="M197.4 160.27l-29.97-17.32a2.03 2.03 0 0 1-.74-2.77l25.64-44.44a6.14 6.14 0 0 1 8.39-2.25l21.08 12.19a6.15 6.15 0 0 1 2.25 8.4l-26.65 46.19z">
            </path>
            <path
                d="M112.56 414.18c.36 6.34.1 12.4-.35 18.45-.26 3.42-2.95 5.5-6.73 5.5-8.78.02-73.93-.39-97.73-.17a6.4 6.4 0 0 1-6.66-5.4c-.35-1.72-.26-13.85-.26-18.38h111.73zM139.94 283.99c3.01-1.89 5.7-4.22 8-6.9-1-.03-2.02-.3-2.94-.84l-52.8-30.5a6.16 6.16 0 0 1-2.59-2.92 34.06 34.06 0 0 0-2.2 10.66l52.53 30.5z">
            </path>
            <path fill="#6E85FF"
                d="M146.18 278.03L89.63 244.4a.96.96 0 0 1-.34-1.3l4.88-8.73a.96.96 0 0 1 1.32-.36l57.7 33.23c.48.28.63.9.32 1.36l-6.03 9.14a.96.96 0 0 1-1.3.3">
            </path>
            <path fill="#FFF"
                d="M149.69 268.55l-53.17-30.72a6 6 0 0 1-2.2-8.18l52.97-91.8a5.98 5.98 0 0 1 8.17-2.18l53.17 30.72a5.99 5.99 0 0 1 2.19 8.18l-52.96 91.79a5.98 5.98 0 0 1-8.17 2.19">
            </path>
            <path fill="#040405"
                d="M162.83 256.6l-62.11-35.88a1.65 1.65 0 0 1-.6-2.26v-.02a1.65 1.65 0 0 1 2.26-.6l62.11 35.89c.8.45 1.06 1.47.6 2.26v.01a1.65 1.65 0 0 1-2.26.6">
            </path>
            <path fill="#6E85FF"
                d="M12.55 288.36l-6.29 10.9a9.67 9.67 0 0 0 3.54 13.21l118.71 68.6a9.66 9.66 0 0 0 13.2-3.55l6.29-10.9-135.45-78.26zM149.66 363.75l4.5-7.18L18.72 278.3l-4.5 7.18z">
            </path>
            <path fill="#FFF"
                d="M37.7 328.6l-11.78 20.44a6.05 6.05 0 0 0 2.2 8.26l53.7 31.02a6.04 6.04 0 0 0 8.25-2.22l11.8-20.43L37.7 328.6z">
            </path>
            <path fill="#FF8073"
                d="M242 314.74c-7.82-2.24-13.34-6.33-13.25-14.93.14-8.27 2.97-13.18 10.96-15.26 1.27-.33 6.97-1.38 8.38-3.44 2.38-3.6 1.85-7.86 1.7-11.96-.23-6.64 3.02-11.35 8.33-14.9 2.63-.5-.3-16.2.6-18.09 1.17-1.9 4.85-5.23 5.14-5.23 1.63.32 14.98-.55 20.09-.54.94 0 1.92.06 2.6.9.21.86-.28 1.5-.64 2.2-6.22 11.95.23 49.76 2.15 55.98 1.33 4.3 5.73 15.46 5.46 16.45-1.15 4.32-14.56 58.12-14.23 59.07-.12 4.97 1.68 17.7.62 19.07-40.85 3.41-48.23-41.76-38.12-69.83">
            </path>
            <path fill="#7087FF"
                d="M217.12 124.25L186.9 106.8a1.49 1.49 0 0 1-.54-2.04l.06-.1a1.49 1.49 0 0 1 2.03-.54l30.21 17.46c.71.4.96 1.32.55 2.03l-.06.1c-.41.71-1.32.95-2.03.54">
            </path>
            <path fill="#040405"
                d="M213.77 129.95l-30.34-17.53a1.59 1.59 0 0 1-.58-2.16l.05-.09a1.58 1.58 0 0 1 2.17-.58l30.34 17.53c.75.44 1.01 1.4.57 2.17l-.04.08a1.58 1.58 0 0 1-2.17.58">
            </path>
            <path fill="#6E85FF"
                d="M177.31 423.21a8.95 8.95 0 1 1 0-17.9 8.95 8.95 0 0 1 0 17.9m.35-32a22.7 22.7 0 1 0 .02 45.39 22.7 22.7 0 0 0-.02-45.4">
            </path>
            <path fill="#FFACA3" d="M492.63 465.46c-.01-.53.46-.59.46-.07-.15.05-.3.07-.46.07"></path>
            <path fill="#7B4873" d="M415.73 452.43c4.66-2.31 9.33-2 14.02.1-4.6-.13-9.27-1.11-13.68 1.04l-.34-1.14">
            </path>
            <path fill="#7D4A74"
                d="M416.15 442.37c4.14-2.8 8.47-2.54 12.98-1.08-.3 1.27-1 1.13-1.67.9-3.85-1.33-7.45-.56-10.92 1.27l-.4-1.1">
            </path>
            <path fill="#F6F7F9"
                d="M350.41 347.24c-.06.13-.09.34-.18.38-.1.04-.27-.1-.4-.15.06-.14.09-.35.18-.38.1-.04.27.09.4.15">
            </path>
            <path fill="#F2F1F3" d="M424.33 398.23l-.06.17c-.06-.02-.14-.03-.19-.07-.02-.02.03-.11.06-.17l.2.07"></path>
            <path fill="#EAEDFF" d="M337.33 359.72c.03.07.1.13.1.19-.01.06-.09.1-.13.16-.15-.13-.14-.25.03-.35"></path>
            <path fill="#F1796D" d="M445.73 435.31l-.06.17c-.07-.02-.14-.03-.19-.07-.02-.02.03-.11.05-.17l.2.07"></path>
            <path fill="#0E0E0E" d="M174.54 389.8l-.17-.07c.02-.06.03-.14.08-.19.01-.02.1.04.17.06l-.08.2"></path>
            <path fill="#5C6ACA" d="M375.26 233.01l-.4.08c.03-.13.03-.27.08-.4.01-.04.15-.06.21-.05.21.06.24.2.11.37">
            </path>
            <path fill="#090A0A" d="M459.55 360.44l-.14.15c-.03-.06-.1-.12-.09-.18 0-.06.08-.1.13-.16l.1.19"></path>
            <path fill="#FF611C"
                d="M265.59 337.6l1.22 2.51 10.14-7.13-2.5-2.9-8.93 7.14zM271.56 356.44l8.54-11.25-1.8-3.6-9.18 10.41z">
            </path>
            <path fill="#FFBE32"
                d="M257.24 231c-7.6-.03-7.78-14.69 1.52-14.68 12.91-.03 32.17-.23 45.08.05-4.04 4.62-6.3 10.08-10.27 14.74-6.24 0-34.42-.1-36.33-.11">
            </path>
            <path fill="#100807" d="M296.85 260.52l-.15-.13c.06-.03.12-.1.18-.1.06.01.1.09.16.13l-.19.1"></path>
            <path fill="#FFBE32"
                d="M309.15 301.38c-5.63.01-13.2-.53-18.84-.52-.93 7.1-5 13.6-11.13 16.99-4.4 2.43-8.76 4.88-12.82 7.88-3.59 2.64-5.63 9.8-.38 12.71 1.9-3.1 6.6-5.99 8.02-6.14 1.41-.16.26 1.32-.24 1.5-11.16 3.82-13.55 20.5-3.57 20.34.94-4.7 6.24-11.08 7.69-10.6 1.45.5-3.43 4.28-4.96 6.46-4.83 6.92-1.16 17.02 5.6 14.07.4-1.15.8-2.29 1.17-3.44 2.66-8.04 8.12-13.6 15.64-17.11 4.57-2.14 10.86-3.51 15.92-3.84-3.87-12.33-3.83-25.54-2.1-38.3">
            </path>
            <path fill="#B5BFF1" d="M192.61 228.08l-.2.06c-.01-.06-.06-.16-.04-.17.18-.13.26-.08.24.11"></path>
            <path fill="#F7B930"
                d="M263.69 226.85c.06-.13.09-.34.19-.38.1-.04.26.1.4.16-.07.13-.1.34-.2.38-.1.04-.26-.1-.39-.16"></path>
            <path fill="#6E85FF"
                d="M197.71 197.76c.07.35-.08.6-.4.74-.44.25-.34.82-.67 1.14.04.22-.03.38-.26.44-.54.17-.46.75-.74 1.09l.03-.04c-.38.28-.27.82-.59 1.12-.15.59-.4 1.1-.88 1.49-.47.24-.37.81-.68 1.14.04.22-.01.38-.24.44-.6.18-.51.8-.77 1.2l-4.14 7.52c-4.06-2.7-5.72-7.39-4.17-11.77a9.28 9.28 0 0 1 9.7-6.3c1.42.17 2.99.25 3.81 1.8">
            </path>
            <path fill="#0A0A0B"
                d="M179.83 409.07c-.06.01-.16.06-.17.04-.05-.05-.05-.13-.07-.2.06 0 .15-.05.17-.03.04.04.05.12.07.19">
            </path>
            <path fill="#9FAADB" d="M196.64 199.64c.04-.5.14-.95.67-1.14-.07.47-.3.84-.67 1.14"></path>
            <path fill="#9DB0F0" d="M195.64 201.17c0-.53.18-.93.74-1.09-.17.42-.23.9-.74 1.09"></path>
            <path fill="#95A2DF" d="M195.08 202.25c.02-.46.1-.9.6-1.12.02.5-.22.85-.6 1.12"></path>
            <path fill="#92A1E2" d="M193.52 204.88c.02-.5.14-.94.68-1.14-.1.46-.27.87-.68 1.14"></path>
            <path fill="#8DA3F5" d="M192.5 206.53c.02-.56.17-1.03.78-1.2-.16.45-.32.92-.77 1.2"></path>
            <path fill="#FFF"
                d="M278.72 195.3c.95-.75 2.08-.8 3.21-.8 9.98.1 19.67-1.63 29.2-4.45.99-.29 1.99-.73 3.01-.1 1 .84 1.09 2.14 1.51 3.24 1.42 3.73 3.37 7.2 5.07 10.8-2.73 1.26-5.7 1.87-8.42 3.18-4.4 2.1-8.1 5.22-11.94 8.14-.4.3-14.33 12.4-20.58 6.55-4.11-3.86-1.8-26.48-1.06-26.56">
            </path>
            <path fill="#FF8073"
                d="M277.47 212.35c-.57-4.53-.1-8.26.6-13.12 4.03.09 8.88-.71 12.75.17 3.45.8 5.23 4 4.78 7.63-.4 3.23-2.92 5.52-6.35 5.73-3.36.2-8.18-.2-11.78-.41M393.23 288.2c5.47-4.37 13.97-30.77 12.4-38.02 1.71-.38 26.64-2.76 28.02-2.87-.5 13.74-4.83 25.43-14.8 34.7-3.82 3.54-8.52 5.83-14 5.34-3.94-.35-7.75.43-11.62.85">
            </path>
            <path
                d="M406.63 256.82c-.08-2.1-.01-4.39-1.68-6.12-5.17-.57-77.64-43.92-84.29-46.67-3.44-1.42-23.63 9.34-34.55 26.95-10.72 14.34-2 44.06-.73 50.69 1.34 6.9 4.32 14.46 4.8 19.54.28 3 18.04 3.7 18.4 2.13l2.93-16.2c-2.06-5.01 20.63-11.1 40.32 4.81 11.02 8.91 34.04 2.93 38.92-1.97 3.68-1.58 7.91-5.75 9.98-9.01 4.68-7.38 6.26-15.55 5.9-24.15">
            </path>
            <path fill="#FFF"
                d="M256.4 465.19c-.53-4.97-1.05-9.98-.43-14.94.63-4.95 7.37-20 22.02-19.31 6.05.28 12.27 1.72 17.53 4.75 4.72 2.72 8.32 5.68 11.8 4.76 3.48-.91 5.6-7.82 3.16-10.49 10.79-6.46 18.72-16.4 28.57-23.75 18.16 13 30.7 38.86 28.28 59.39-36.93.51-74-1.01-110.92-.5M340.58 282.12c5.21 3.23 9.88 10.46 15.75 12.23 7.02 2.12 14.03.25 21.07-1.8 17.24-5.01 32.84-8.91 49.1-1.28 16.44 7.71 30.07 25.64 35.8 42.67.99 2.96 2.22 5.49.85 6.51-1.65 1.24-35.38 1.7-50 5.83-15.29 4.33-31.05 10.42-46.32 14.77-15.27 4.36-33.15 4.47-45.43-5.6-10.1-8.28-14.42-22.02-14.32-35.08.11-13.06 2.12-23.84 6.05-36.3 0 0 19.73-6.73 27.45-1.95">
            </path>
            <path fill="#6E85FF"
                d="M346.09 267.52c-.15 6.68 3.1 20.65-7.06 21.2-4.83.25-6.83-5.97-11.27-5.49-5.31.58-8.53 7.3-15.36 4.7-5.68-2.17.17-19 2.56-20.92 2.6-2.08 29.23-2.41 31.13.5">
            </path>
            <path fill="#FF8073"
                d="M346.09 267.52c-8.5 0-22.96 1.45-31.2-.55-2.32-7.2-9.2-5.12-11.31-5.4-4.48-.57-9.92-2.74-6.35-8.65 1.9-3.16 13.03-1.5 12.68-3.87-1.06-1.61-10.2 1.69-12.37-3.16-2.39-9.71 11.83-6.19 12.02-8.3.19-2.1-12.27-.3-7.14-7.25 3.74-5.04 16.74-4.35 21.98-3.07 17.7 4.32 23.2 24.11 21.69 40.25">
            </path>
            <path fill="#B3C4FF"
                d="M323.7 419.3c3.38-5.56 10.36-9.36 15.68-13.1 1.06 1.29 3.99 2.9 5.05 4.18-.71 2.55-2.83 12.6-12.84 12.51-4.29-.04-7.88-3.6-7.88-3.6M335.4 452.57a106.33 106.33 0 0 1 22.56-25.14c4.53 6.45 10.04 24.26 9.42 25.02-.55.67-.86.27-1.72.27l-30.35.04M254.22 453.53c1.34-8.59 6.75-16.37 14.15-20.34a26 26 0 0 1 24.02-.15c7.44 3.87 12.94 11.58 14.39 20.15">
            </path>
            <path fill="#010203"
                d="M177.31 423.21a8.95 8.95 0 1 1 0-17.9 8.95 8.95 0 0 1 0 17.9m.82-26.06c-8.46-.33-17.57 5.55-17.7 16.53A17.29 17.29 0 0 0 177.84 431c9.03.62 15.77-7.44 16.27-14.98.7-10.42-6.8-18.52-15.99-18.87">
            </path>
            <path fill="#6E85FF"
                d="M177.31 423.21a8.95 8.95 0 1 1 0-17.9 8.95 8.95 0 0 1 0 17.9m.1-24.17c-8.62-.13-15.06 6.01-15.14 14.44a15.7 15.7 0 0 0 15.56 15.9 14.63 14.63 0 0 0 14.72-14.43c.07-8.79-6.58-15.78-15.15-15.9">
            </path>
            <path fill="#FFF"
                d="M196.84 276.68a8.95 8.95 0 1 1 0-17.91 8.95 8.95 0 0 1 0 17.9m.34-32a22.7 22.7 0 1 0 .02 45.4 22.7 22.7 0 0 0-.02-45.4">
            </path>
            <path fill="#7086FF"
                d="M196.84 276.68a8.95 8.95 0 1 1 0-17.91 8.95 8.95 0 0 1 0 17.9m.82-26.06c-8.47-.32-17.57 5.56-17.71 16.54a17.29 17.29 0 0 0 17.42 17.32c9.03.61 15.78-7.45 16.28-14.99.69-10.41-6.81-18.51-16-18.87">
            </path>
            <path fill="#FFF"
                d="M196.84 276.68a8.95 8.95 0 1 1 0-17.91 8.95 8.95 0 0 1 0 17.9m.09-24.16c-8.61-.13-15.05 6-15.14 14.43a15.7 15.7 0 0 0 15.56 15.9 14.63 14.63 0 0 0 14.72-14.42c.08-8.79-6.58-15.78-15.14-15.91">
            </path>
            <path fill="#6E85FF"
                d="M170.22 245.36l40.7-70.53c1.72-2.99.7-6.8-2.28-8.52l-53.03-30.64a6.22 6.22 0 0 0-8.5 2.28l-40.84 70.78 63.95 36.63z">
            </path>
            <g>
                <path fill="#BDC8FC"
                    d="M193.11 214.08a8.95 8.95 0 1 1 0-17.91 8.95 8.95 0 0 1 0 17.9m.35-32a22.7 22.7 0 1 0 .01 45.4 22.7 22.7 0 0 0-.01-45.4">
                </path>
                <path fill="#020203"
                    d="M193.11 214.08a8.95 8.95 0 1 1 0-17.91 8.95 8.95 0 0 1 0 17.9m.82-26.05c-8.46-.33-17.57 5.55-17.7 16.53a17.29 17.29 0 0 0 17.41 17.32c9.04.62 15.78-7.45 16.28-14.99.7-10.41-6.8-18.5-15.99-18.86">
                </path>
                <path fill="#BDC8FC"
                    d="M193.11 214.08a8.95 8.95 0 1 1 0-17.91 8.95 8.95 0 0 1 0 17.9m.1-24.16c-8.62-.13-15.06 6.01-15.15 14.44a15.7 15.7 0 0 0 15.57 15.9 14.63 14.63 0 0 0 14.72-14.43c.07-8.79-6.59-15.78-15.15-15.91">
                </path>
            </g>
            <path fill="#FFF"
                d="M239.62 321.35c3.63-.2 6.93.18 10.56.02 2.63-.11 5.63-.08 7.43 1.79 1.59 1.65 1.64 4.34.5 6.3s-3.36 2.96-5.47 3.9c-2.31 1.02-12.44 2.03-14.99 1.7-.05-4.1 1.97-13.71 1.97-13.71">
            </path>
            <g class="homepage-eye-boy--3z0Ym">
                <path fill="#FFF"
                    d="M276.7 242.14c-3.89-3.02-8.44-4.22-13.38-3.87-1.68-.23-3.36.05-5.04.07-1.45 3.31-1.37 6.76-.7 10.19.37 1.96.73 3.88.34 5.87 2.7-.12 5.4-.03 8.07.48 1.32.48 2.7.67 4.08.62 2.93-.12 5.64-.78 7.44-3.45 2.32-3.46 1.67-8-.8-9.91">
                </path>
                <path fill="#6E85FF"
                    d="M257.86 254.33c.39-1.99.03-3.9-.35-5.87-.66-3.42-.75-6.87.7-10.18 1.68-.03 3.36-.3 5.05-.07 4.2.96 5.93 2.99 6.14 7.4.17 3.54-.14 6.95-3.47 9.2a35.2 35.2 0 0 0-8.07-.48">
                </path>
            </g>
            <path fill="#FF796B"
                d="M246.7 86.6c-.47.35-1.06.38-1.3.05-.26-.33-.1-.88.37-1.24s1.05-.39 1.3-.06c.26.33.08.88-.38 1.24M252.28 79.85c.1.31-.36.73-1.01.93-.66.2-1.27.1-1.37-.21-.1-.32.36-.74 1.01-.94.66-.2 1.27-.1 1.37.22M246.45 93.51c.07.18-.23.46-.67.64-.44.18-.85.18-.92 0-.07-.17.23-.46.66-.64.44-.17.86-.17.93 0M255.39 85.56c.13.23-.1.6-.51.84-.41.24-.85.25-.98.02s.1-.6.5-.84c.42-.23.85-.24.99-.02M262.07 79.74c.15.39-.3.94-1.01 1.22-.72.28-1.42.2-1.57-.19-.16-.39.3-.93 1-1.22.72-.28 1.42-.2 1.58.2">
            </path>
            <path fill="#FFBE32"
                d="M286.2 108.74c-5.75-2.7-8.93-5.97-9.59-12.5-.63-6.34 4.7-13.38 2.57-19.55-1.82-5.25-9.51-5.75-12.84-9.6-4.98-5.74-.58-15.62-6-20.73-6.34-5.99-12.68 4.76-14.04 9.25-1.86 6.13-4.5 11.56-9.25 15.94-5.5 5.08-11.84 6.28-18.5 9.09 2.42 2.5 7.83 6.81 9.09 10.13 1.57 4.15-1.62 5.83-3.11 9.3-2.9 6.73 3.38 11.56 9.78 10.77-.41 3.14-.37 6.32.01 9.46-12.51-1.87-24.92-1.97-35.38 5.58-2.8 2.03-6.62 7.39-5.43 11.38 1.6 5.33 7.87-.28 11.52-1.27 1.7-.46 7.12-.53 8.73 0 3.08 1.03-.47 2.17-2.57 2.75-5.63 1.55-9.98 1.86-14.04 6.85-2.45 3.01-4.27 9.88 1.8 10.2 2.95.16 15.84-11.23 17.9-8.49 1.32 1.58-7.71 4.46-11.82 7.37-14.03 9.95-1.37 15.97 10.96 7.2 6.72-4.78 16.89-6.1 22.5.63 5.3 6.35 8.75 14.2 13.82 20.77 3.53 4.58 12.04 11.64 18.3 11.85 2.5.09 27 3.33 34.94-10.63 8.1-14.23-2.3-46.16-2.22-48.15.17-4.34.22-6.12.17-10.46-.1-7.9-11.28-14.31-17.3-17.14z">
            </path>
            <path fill="#6E85FF"
                d="M433.34 238.93c-.66-9.35-3.97-17.72-9.45-25.22-6.4-8.74-15.15-14.93-23.72-21.24-3.9-2.87-14.64-12.34-16.27-13.73-3.33-2.83-5.43-6.5-7.43-10.27-3.24-6.1-17.66-36.75-26.96-41.93-6.73-3.74-13.85-4.15-21.18-2.2-5.45 1.47-29.03 15.99-28.04 15.8.98-.2-.67.79-1.01 1.18-2.37 2.05-5.15 3.47-7.7 5.27-5.61 3.99-11.44 7.53-18.66 6.77-.5.57-.87 41.45-.87 41.45.33 1.8 30.73-.19 41.45-4.65 0 .03.02.06.03.08.64 1.15 1.1 2.36 1.59 3.57 1.5 3.7 3.09 7.36 5.34 10.69 21.23 33.81 50.47 51.25 84.94 47.18 1.54-.2 27.23-3.3 27.96-4.19.3-2.85.18-5.7-.02-8.56">
            </path>
            <path fill="#020A1B" d="M313.6 190.32c-11.04 3.95-34.46 5.06-34.88 4.98 1.66-20.06 30.58-21.23 34.88-4.98">
            </path>
            <g class="homepage-eye-girl--2XRGW">
                <path fill="#FFF"
                    d="M231.5 74.37a12.27 12.27 0 0 0-9.79 3.67c-1.08.64-1.87 1.62-2.8 2.43 1.08 2.97 3.12 5.3 5.47 7.35 1.34 1.18 2.65 2.33 3.57 3.89a21.3 21.3 0 0 1 4.84-3.49 6.55 6.55 0 0 0 2.67-1.5c1.58-1.47 2.74-3.2 2.2-5.9-.67-3.49-3.65-6.3-6.16-6.45">
                </path>
                <path fill="#6E85FF"
                    d="M227.88 91.7c-.92-1.56-2.23-2.71-3.58-3.89-2.35-2.05-4.38-4.39-5.47-7.35.93-.82 1.72-1.8 2.8-2.44 2.94-1.32 5.09-.74 7.74 2.2 2.14 2.36 3.94 4.86 3.35 7.98-1.8.92-3.37 2.14-4.84 3.5">
                    <animate attributeName="d" dur="7s" keySplines="0 0 1 1; 0 0 1 1; 0 0 1 1; 0 0 1 1; 0 0 1 1"
                        keyTimes="0; 0.01; 0.6; 0.61; 1" repeatCount="indefinite"
                        values="M227.881819,91.6927321 C226.957034,90.1358765 225.651034,88.9872584 224.301876,87.810876 C221.95498,85.7635183 219.917372,83.4241215 218.827154,80.457458 C219.762214,79.6440677 220.553418,78.6620352 221.63747,78.0234571 C224.569036,76.6959137 226.716591,77.2758784 229.371749,80.2106645 C231.514165,82.5778255 233.306191,85.0786663 232.719467,88.2047173 C230.917166,89.1178533 229.34606,90.3353679 227.881819,91.6927321; M227.30796514592166 91.8748441864845c-0.7429172510056531-1.2210499336294034-1.9070598032165844-2.2194870385885226-3.1107887034385198-3.243871274966198-2.0938077012075182-1.7826413507874321-3.850155764663516-3.71880992859903-4.602089479666651-5.940454862799675 1.0126174532714787-0.41608767008370856 1.9016170292564483-0.971275530840864 3.0422494866772234-1.2431937368956487 3.040845037002808-0.4592414375296896 5.098451543978896 0.27768724054251315 7.399548957524098 2.722103271047276 1.856825408615104 1.9717598248616999 3.3529362099692985 3.9811303634011166 2.431120274910522 6.050641395698892-1.8801038431112407 0.349383653627904-3.5651897927410747 0.9453760094434543-5.160040536006672 1.6547752079153542; M227.30796514592166 91.8748441864845c-0.7429172510056531-1.2210499336294034-1.9070598032165844-2.2194870385885226-3.1107887034385198-3.243871274966198-2.0938077012075182-1.7826413507874321-3.850155764663516-3.71880992859903-4.602089479666651-5.940454862799675 1.0126174532714787-0.41608767008370856 1.9016170292564483-0.971275530840864 3.0422494866772234-1.2431937368956487 3.040845037002808-0.4592414375296896 5.098451543978896 0.27768724054251315 7.399548957524098 2.722103271047276 1.856825408615104 1.9717598248616999 3.3529362099692985 3.9811303634011166 2.431120274910522 6.050641395698892-1.8801038431112407 0.349383653627904-3.5651897927410747 0.9453760094434543-5.160040536006672 1.6547752079153542; M227.881819,91.6927321 C226.957034,90.1358765 225.651034,88.9872584 224.301876,87.810876 C221.95498,85.7635183 219.917372,83.4241215 218.827154,80.457458 C219.762214,79.6440677 220.553418,78.6620352 221.63747,78.0234571 C224.569036,76.6959137 226.716591,77.2758784 229.371749,80.2106645 C231.514165,82.5778255 233.306191,85.0786663 232.719467,88.2047173 C230.917166,89.1178533 229.34606,90.3353679 227.881819,91.6927321; M227.881819,91.6927321 C226.957034,90.1358765 225.651034,88.9872584 224.301876,87.810876 C221.95498,85.7635183 219.917372,83.4241215 218.827154,80.457458 C219.762214,79.6440677 220.553418,78.6620352 221.63747,78.0234571 C224.569036,76.6959137 226.716591,77.2758784 229.371749,80.2106645 C231.514165,82.5778255 233.306191,85.0786663 232.719467,88.2047173 C230.917166,89.1178533 229.34606,90.3353679 227.881819,91.6927321">
                    </animate>
                </path>
            </g>
            <path fill="#FF611C"
                d="M226 79.1c-14.38-21.46-13.5-26.01 8.74-2.4-1.92 1.54-5.9 3-8.73 2.4M238.94 71.47c-22.61-16.97-18.14-27.12 4.1-3.52-.85 1.63-1.28 4.12-4.1 3.52">
            </path>
            <path fill="#FF8073"
                d="M349.71 78.73c-6.2-6.8-8.62-20.26-15.98-26.97-10.05-9.17-30.67-1.76-36.26-18.67-3.85-11.64-7.24-16.4-17.3-24.07-19.12-14.56-52.35-9.89-66.5 9.18-14.2 19.14-13.2 47.52 5.44 63.2 2.87.03 7.32-.73 11.91-2.67-5.8-3.4-9.4-9.27-13.27-14.65-.74-1.03.96-2 1.7-1 3.94 5.5 7.55 11.51 13.79 14.61a32.94 32.94 0 0 0 3.34-1.94c2.1-1.4 3.8-3.3 5.23-5.46-4.9-1.82-7.54-6.8-11.4-10.13-.97-.82.43-2.2 1.38-1.38 3.7 3.18 6.26 8.24 11.08 9.8 3.92-6.82 4.81-16.75 7.75-19.56 5.54-5.3 9.25-2.41 10.96 2.74 1.96 5.92-.51 12.5 3.25 16.8 3 3.4 10.57 3.98 12.16 8.9 1.9 5.87-3.18 13.35-2.4 19.54 1.67 13.13 12.99 12.78 21.07 20.23 8.89 8.18 3.39 21.16 3.73 24.6 4.1-3.44 15.05-10.8 18.57-12.8 4.95-2.81 9.99-5.26 15.77-5.67 12.15-.87 23.63 7.26 30.09 17 6.66 10.05 7.46 21.32 14.04 31.37 1.82 2.77 6.81 11.35 10.47 11.04 3.75-.32 10.88-9.16 13.19-11.88 7.33-8.66 12.38-19.74 13.09-31.11 1.54-24.93-7.01-42.22-30.2-48.16-10.2-2.6-27-4.44-34.7-12.9z">
                <animate attributeName="d" dur="8s" keySplines="0 0 1 1; 0 0 1 1; 0 0 1 1; 0 0 1 1; 0 0 1 1"
                    keyTimes="0; 0.25; 0.5; 0.85; 1" repeatCount="indefinite"
                    values="M349.710747,78.7269214 C343.514693,71.9226189 341.08701,58.4651749 333.728811,51.7585615 C323.676407,42.5932678 303.062427,50.0032296 297.467483,33.0917049 C293.617298,21.4502498 290.22902,16.6871483 280.165313,9.01906852 C261.053107,-5.54380469 227.815337,-0.868096142 213.673332,18.1967019 C199.47584,37.3355379 200.469469,65.7188472 219.10798,81.4077158 C221.984059,81.4303385 226.428161,80.6735051 231.020228,78.7269214 C225.211556,75.3314541 221.621338,69.4598254 217.746493,64.0786987 C217.006665,63.0514208 218.709296,62.0724732 219.440903,63.0884398 C223.391786,68.575482 226.996389,74.5910736 233.23971,77.6945019 C234.362809,77.1227636 235.482825,76.4811005 236.576126,75.7520314 C238.67333,74.3545632 240.378016,72.4439701 241.814514,70.2876119 C236.90802,68.474708 234.268275,63.4977057 230.40165,60.1639368 C229.443985,59.3382069 230.837326,57.955135 231.788826,58.7757234 C235.485908,61.9624445 238.046532,67.0165697 242.872878,68.575482 C246.79088,61.7578115 247.680728,51.8295146 250.618459,49.0160687 C256.158944,43.7110367 259.874521,46.6077754 261.579207,51.7585615 C263.537694,57.6754357 261.065438,64.2689354 264.833419,68.5538876 C267.82972,71.9616945 275.396509,72.5447441 276.992276,77.4662179 C278.894249,83.3296202 273.808963,90.8136331 274.59503,97.0040368 C276.259641,110.129338 287.577972,109.783827 295.659558,117.226708 C304.546734,125.412025 299.046323,138.393364 299.388493,141.820708 C303.498645,138.393364 314.440897,131.031719 317.960214,129.031663 C322.912947,126.217189 327.946855,123.773934 333.728811,123.360554 C345.87842,122.492664 357.357047,130.620397 363.819233,140.363598 C370.480761,150.406037 371.282241,161.675246 377.862594,171.726939 C379.680309,174.504394 384.674143,183.078412 388.331151,182.767864 C392.082692,182.449089 399.208668,173.61491 401.5196,170.885785 C408.849029,162.227446 413.89835,151.152588 414.605296,139.777464 C416.152768,114.850292 407.595187,97.5644518 384.405711,91.62187 C374.217672,89.0110004 357.408034,87.1785705 349.710747,78.7269214 Z; M357.51506,85.9135096 C351.319006,79.1092071 347.842822,65.4823368 340.484623,58.7757234 C330.432219,49.6104297 304.983437,59.4843085 299.388493,42.5727838 C295.538308,30.9313287 290.22902,16.6871483 280.165313,9.01906852 C261.053107,-5.54380469 227.815337,-0.868096142 213.673332,18.1967019 C199.47584,37.3355379 200.469469,65.7188472 219.10798,81.4077158 C221.984059,81.4303385 226.428161,80.6735051 231.020228,78.7269214 C225.211556,75.3314541 221.621338,69.4598254 217.746493,64.0786987 C217.006665,63.0514208 218.709296,62.0724732 219.440903,63.0884398 C223.391786,68.575482 226.996389,74.5910736 233.23971,77.6945019 C234.362809,77.1227636 235.482825,76.4811005 236.576126,75.7520314 C238.67333,74.3545632 240.378016,72.4439701 241.814514,70.2876119 C236.90802,68.474708 234.268275,63.4977057 230.40165,60.1639368 C229.443985,59.3382069 230.837326,57.955135 231.788826,58.7757234 C235.485908,61.9624445 238.046532,67.0165697 242.872878,68.575482 C246.79088,61.7578115 247.680728,51.8295146 250.618459,49.0160687 C256.158944,43.7110367 259.874521,46.6077754 261.579207,51.7585615 C263.537694,57.6754357 261.065438,64.2689354 264.833419,68.5538876 C267.82972,71.9616945 275.396509,72.5447441 276.992276,77.4662179 C278.894249,83.3296202 273.808963,90.8136331 274.59503,97.0040368 C276.259641,110.129338 287.577972,109.783827 295.659558,117.226708 C304.546734,125.412025 299.046323,138.393364 299.388493,141.820708 C303.498645,138.393364 314.440897,131.031719 317.960214,129.031663 C322.912947,126.217189 327.946855,123.773934 333.728811,123.360554 C345.87842,122.492664 357.357047,130.620397 363.819233,140.363598 C370.480761,150.406037 371.282241,161.675246 377.862594,171.726939 C379.680309,174.504394 384.674143,183.078412 388.331151,182.767864 C392.082692,182.449089 399.208668,173.61491 401.5196,170.885785 C408.849029,162.227446 418.748263,148.795363 419.455209,137.420239 C421.002681,112.493067 418.785522,102.946619 395.596046,97.0040368 C385.408007,94.3931672 365.212347,94.3651587 357.51506,85.9135096 Z; M360.64972,81.4077158 C354.453666,74.6034133 349.857014,61.2106338 342.498815,54.5040204 C332.446411,45.3387267 308.731768,53.9845861 303.136824,37.0730614 C299.286639,25.4316063 290.22902,16.6871483 280.165313,9.01906852 C261.053107,-5.54380469 227.815337,-0.868096142 213.673332,18.1967019 C199.47584,37.3355379 200.469469,65.7188472 219.10798,81.4077158 C221.984059,81.4303385 226.428161,80.6735051 231.020228,78.7269214 C225.211556,75.3314541 221.621338,69.4598254 217.746493,64.0786987 C217.006665,63.0514208 218.709296,62.0724732 219.440903,63.0884398 C223.391786,68.575482 226.996389,74.5910736 233.23971,77.6945019 C234.362809,77.1227636 235.482825,76.4811005 236.576126,75.7520314 C238.67333,74.3545632 240.378016,72.4439701 241.814514,70.2876119 C236.90802,68.474708 234.268275,63.4977057 230.40165,60.1639368 C229.443985,59.3382069 230.837326,57.955135 231.788826,58.7757234 C235.485908,61.9624445 238.046532,67.0165697 242.872878,68.575482 C246.79088,61.7578115 247.680728,51.8295146 250.618459,49.0160687 C256.158944,43.7110367 259.874521,46.6077754 261.579207,51.7585615 C263.537694,57.6754357 261.065438,64.2689354 264.833419,68.5538876 C267.82972,71.9616945 275.396509,72.5447441 276.992276,77.4662179 C278.894249,83.3296202 273.808963,90.8136331 274.59503,97.0040368 C276.259641,110.129338 287.577972,109.783827 295.659558,117.226708 C304.546734,125.412025 299.046323,138.393364 299.388493,141.820708 C303.498645,138.393364 314.440897,131.031719 317.960214,129.031663 C322.912947,126.217189 327.946855,123.773934 333.728811,123.360554 C345.87842,122.492664 357.357047,130.620397 363.819233,140.363598 C370.480761,150.406037 371.282241,161.675246 377.862594,171.726939 C379.680309,174.504394 384.674143,183.078412 388.331151,182.767864 C392.082692,182.449089 399.208668,173.61491 401.5196,170.885785 C408.849029,162.227446 418.748263,148.795363 419.455209,137.420239 C421.002681,112.493067 417.913312,95.1810816 394.723836,89.2384998 C384.535797,86.6276302 368.347007,89.8593649 360.64972,81.4077158 Z; M350.052452,75.7520314 C343.856398,68.9477289 344.666786,58.4651749 337.308587,51.7585615 C327.256183,42.5932678 304.983437,53.4764865 299.388493,36.5649618 C295.538308,24.9235067 290.22902,16.6871483 280.165313,9.01906852 C261.053107,-5.54380469 227.815337,-0.868096142 213.673332,18.1967019 C199.47584,37.3355379 200.469469,65.7188472 219.10798,81.4077158 C221.984059,81.4303385 226.428161,80.6735051 231.020228,78.7269214 C225.211556,75.3314541 221.621338,69.4598254 217.746493,64.0786987 C217.006665,63.0514208 218.709296,62.0724732 219.440903,63.0884398 C223.391786,68.575482 226.996389,74.5910736 233.23971,77.6945019 C234.362809,77.1227636 235.482825,76.4811005 236.576126,75.7520314 C238.67333,74.3545632 240.378016,72.4439701 241.814514,70.2876119 C236.90802,68.474708 234.268275,63.4977057 230.40165,60.1639368 C229.443985,59.3382069 230.837326,57.955135 231.788826,58.7757234 C235.485908,61.9624445 238.046532,67.0165697 242.872878,68.575482 C246.79088,61.7578115 247.680728,51.8295146 250.618459,49.0160687 C256.158944,43.7110367 259.874521,46.6077754 261.579207,51.7585615 C263.537694,57.6754357 261.065438,64.2689354 264.833419,68.5538876 C267.82972,71.9616945 275.396509,72.5447441 276.992276,77.4662179 C278.894249,83.3296202 273.808963,90.8136331 274.59503,97.0040368 C276.259641,110.129338 287.577972,109.783827 295.659558,117.226708 C304.546734,125.412025 299.046323,138.393364 299.388493,141.820708 C303.498645,138.393364 314.440897,131.031719 317.960214,129.031663 C322.912947,126.217189 327.946855,123.773934 333.728811,123.360554 C345.87842,122.492664 357.357047,130.620397 363.819233,140.363598 C370.480761,150.406037 371.282241,161.675246 377.862594,171.726939 C379.680309,174.504394 384.674143,183.078412 388.331151,182.767864 C392.082692,182.449089 399.208668,173.61491 401.5196,170.885785 C408.849029,162.227446 413.086346,145.803038 413.793292,134.427914 C415.340764,109.500742 401.05207,93.9282108 377.862594,87.985629 C367.674555,85.3747594 357.749739,84.2036805 350.052452,75.7520314 Z; M349.710747,78.7269214 C343.514693,71.9226189 341.08701,58.4651749 333.728811,51.7585615 C323.676407,42.5932678 303.062427,50.0032296 297.467483,33.0917049 C293.617298,21.4502498 290.22902,16.6871483 280.165313,9.01906852 C261.053107,-5.54380469 227.815337,-0.868096142 213.673332,18.1967019 C199.47584,37.3355379 200.469469,65.7188472 219.10798,81.4077158 C221.984059,81.4303385 226.428161,80.6735051 231.020228,78.7269214 C225.211556,75.3314541 221.621338,69.4598254 217.746493,64.0786987 C217.006665,63.0514208 218.709296,62.0724732 219.440903,63.0884398 C223.391786,68.575482 226.996389,74.5910736 233.23971,77.6945019 C234.362809,77.1227636 235.482825,76.4811005 236.576126,75.7520314 C238.67333,74.3545632 240.378016,72.4439701 241.814514,70.2876119 C236.90802,68.474708 234.268275,63.4977057 230.40165,60.1639368 C229.443985,59.3382069 230.837326,57.955135 231.788826,58.7757234 C235.485908,61.9624445 238.046532,67.0165697 242.872878,68.575482 C246.79088,61.7578115 247.680728,51.8295146 250.618459,49.0160687 C256.158944,43.7110367 259.874521,46.6077754 261.579207,51.7585615 C263.537694,57.6754357 261.065438,64.2689354 264.833419,68.5538876 C267.82972,71.9616945 275.396509,72.5447441 276.992276,77.4662179 C278.894249,83.3296202 273.808963,90.8136331 274.59503,97.0040368 C276.259641,110.129338 287.577972,109.783827 295.659558,117.226708 C304.546734,125.412025 299.046323,138.393364 299.388493,141.820708 C303.498645,138.393364 314.440897,131.031719 317.960214,129.031663 C322.912947,126.217189 327.946855,123.773934 333.728811,123.360554 C345.87842,122.492664 357.357047,130.620397 363.819233,140.363598 C370.480761,150.406037 371.282241,161.675246 377.862594,171.726939 C379.680309,174.504394 384.674143,183.078412 388.331151,182.767864 C392.082692,182.449089 399.208668,173.61491 401.5196,170.885785 C408.849029,162.227446 413.89835,151.152588 414.605296,139.777464 C416.152768,114.850292 407.595187,97.5644518 384.405711,91.62187 C374.217672,89.0110004 357.408034,87.1785705 349.710747,78.7269214 Z">
                </animate>
            </path>
            <path fill="#6E4373"
                d="M388.96 182.78c-38.54 21.34-84.78.52-89.68-41.46.34-.4 28.02-26.4 49.09-17.15 21.06 9.25 26.71 43.19 40.59 58.61">
            </path>
            <path fill="#FF796B"
                d="M245.88 83.64c-.46.36-1.04.38-1.3.05-.25-.32-.08-.88.38-1.24.47-.36 1.05-.39 1.3-.06.26.33.09.89-.38 1.25M251.47 76.89c.1.32-.36.73-1.01.94-.66.2-1.27.1-1.37-.22-.1-.31.36-.73 1.02-.93.65-.2 1.26-.1 1.36.2M245.64 90.55c.07.18-.23.47-.67.64-.44.18-.85.18-.92 0-.07-.17.23-.45.67-.63.43-.18.85-.18.92 0M254.58 82.6c.13.23-.1.6-.5.84-.42.24-.86.25-.99.02-.13-.22.1-.6.5-.83.42-.24.86-.25.99-.02M261.26 76.79c.15.38-.3.93-1.01 1.21-.71.29-1.42.2-1.57-.19-.16-.38.3-.93 1.01-1.21.71-.29 1.42-.2 1.57.19">
            </path>
            <path fill="#FFF"
                d="M427.49 427.39c12.56 1.52 7.95 11.41 10.02 23.9-10.28-.87-28 1.16-28 1.16v18.51s67.05-1.19 82.97-.77c.13-12.53-.57-24.28-5.15-35.94-4.58-11.66-12.96-23.06-24.13-28.71-11.18-5.65-25.25-4.9-35.56 2.22l-.01 19.24-.14.39z">
            </path>
            <path fill="#B3C4FF"
                d="M427.37 419.22a10.58 10.58 0 0 0 9.05 0 10.97 10.97 0 0 0 5.71-7.26c.36-1.57 1.54-7.96.51-9.9-.75-1.41-15.48 4.4-15.4 5.53M409.38 453.27c1.11-8.59 5.6-16.37 11.72-20.33a18.31 18.31 0 0 1 19.9-.16c6.17 3.88 10.73 11.59 11.92 20.15M473.44 452.13a25 25 0 0 1-.29-15.3 24.96 24.96 0 0 1 8.74-12.55c5.06 8.5 8.4 18 9.78 27.79L473.6 452">
            </path>
            <path fill="#B3C4FF"
                d="M473.94 451.99a24.72 24.72 0 0 1 8.32-27.35l-.81-.1a76.38 76.38 0 0 1 9.73 27.67l.5-.66-18.08-.05c-.66 0-.66 1.02 0 1.03l18.07.05c.37 0 .55-.33.5-.65a77.12 77.12 0 0 0-9.83-27.9c-.19-.32-.56-.31-.81-.11a25.7 25.7 0 0 0-8.59 28.34c.2.63 1.2.36 1-.27">
            </path>
            <path
                d="M463.16 340.25c-2.1-.6-4-.59-5.9-.74-3.25-.26-6.41.45-9.63.46-7.4.03-14.69 1.09-21.94 2.43-8.64 1.6-16.95 4.35-25.24 7.2-23.7 7.22-64.63 25.23-84.34.58-4.54-5.68-4.06-11.27-12.4-10.11-5.67.8-11.4 3.57-15.78 7.25-11.74 9.87-10.08 22.59-8.19 36.36 4.31 11.8 12.1 21.04 20.2 30.38 2.37 2.73 9.6 15.1 11.3 16.99 3.02 3.32 29.09-21.02 28.74-24.18-4.1-2.93-6.52-6.45-8.2-11.24-1.44-4.1.93-7.54 5.27-8.14 4.02-.55 7.71.63 11.36 1.87 1.53.53 3.24 1.26 4.26 2.8 5.2 20.82 6 52.77 33.56 55.48 11.58 1.14 21.81-5.96 29.26-14.14 1.93-2.12 3.44-4.4 5.55-6.4 1.55-1.48 4.22-4.38 6.16-4.7 3.1-3.47.01-15.28-.23-15.45-8.1 2.32-13.44-1.88-14.1-5.18-.7-3.58 3.48-5.4 13.1-7.87a72.64 72.64 0 0 0 19.39-8.23c6.69-4.03 12.55-8.96 15.7-16.46 3.97-9.48 4.11-19.19 2.1-28.96">
            </path>
            <path fill="#2F70A0"
                d="M279.74 383.68c-3.34-13.49-3.55-26.49 8.19-36.36 4.37-3.68 15.79-10.69 21.52-10.6 1.6 4.3 2.33 7.84 6.66 13.46 18.53 24.02 60.8 6.12 84.34-.59.52 10.12-1.5 24.07-13.3 26.91-6.23 1.5-8.8-4.07-14.12-5.67-6.27-1.88-8.66 4.61-14 6.94-12.8 5.59-24.38-7.56-36.65-9.65-9.84-1.68-22.2 3.6-23.88 14.45-1.78 11.4 13.8 12.94 19.68 20.53 2.94 3.79.72 11.66 3.65 14.99 4.06 4.61 7.26.78 2.78 5.96-1.93 2.23-9.66 8.4-12.98 7.32-2.41-.78-9.32-14.58-11.7-17.31-8.1-9.34-17.16-18.18-20.19-30.38">
                <animate attributeName="d" dur="8s" keySplines="0 0 1 1; 0 0 1 1; 0 0 1 1" keyTimes="0; 0.5; 1"
                    repeatCount="indefinite"
                    values="M287.929287,347.31558 C292.302489,343.6363 303.71638,336.631478 309.450042,336.72711 C311.057111,341.014119 311.782553,344.562804 316.114653,350.179413 C334.643218,374.195505 376.910991,356.301948 400.451886,349.594306 C400.972847,359.70667 401.504641,377.295835 389.705423,380.133961 C383.474433,381.633231 378.46975,373.805613 373.145048,372.205569 C366.873984,370.320684 361.562279,372.330307 356.221136,374.663534 C343.429316,380.249294 336.880168,374.298173 324.606227,372.205569 C314.770634,370.528402 304.145624,370.683261 302.454297,381.540118 C300.677684,392.945063 313.02074,392.226171 318.898258,399.810958 C321.835989,403.601295 318.898253,414.757046 321.830847,418.08773 C325.890649,422.699683 329.094513,418.865129 324.606227,424.047793 C322.675483,426.277161 314.952508,432.451111 311.63356,431.374475 C309.219873,430.591934 302.309681,416.792064 299.939151,414.059854 C291.833931,404.717692 282.768991,395.875286 279.742892,383.678546 C276.395174,370.191281 276.187611,357.191433 287.929287,347.31558 Z; M287.929287,347.31558 C292.302489,343.6363 303.71638,336.631478 309.450042,336.72711 C311.057111,341.014119 311.782553,344.562804 316.114653,350.179413 C334.643218,374.195505 376.910991,356.301948 400.451886,349.594306 C400.972847,359.70667 403.897251,370.983961 392.098033,373.822087 C385.867043,375.321357 380.840916,373.960831 375.516214,372.360787 C369.24515,370.475902 360.529873,374.460475 355.18873,376.793702 C342.39691,382.379462 338.480739,372.925715 326.206798,370.833111 C316.371205,369.155944 305.566077,369.015684 303.87475,379.872541 C302.098137,391.277486 310.237135,389.634432 316.114653,397.219219 C319.052384,401.009556 314.844415,409.351147 317.777009,412.681831 C321.836811,417.293784 329.094513,418.865129 324.606227,424.047793 C322.675483,426.277161 314.952508,432.451111 311.63356,431.374475 C309.219873,430.591934 302.309681,416.792064 299.939151,414.059854 C291.833931,404.717692 282.768991,395.875286 279.742892,383.678546 C276.395174,370.191281 276.187611,357.191433 287.929287,347.31558 Z; M287.929287,347.31558 C292.302489,343.6363 303.71638,336.631478 309.450042,336.72711 C311.057111,341.014119 311.782553,344.562804 316.114653,350.179413 C334.643218,374.195505 376.910991,356.301948 400.451886,349.594306 C400.972847,359.70667 401.504641,377.295835 389.705423,380.133961 C383.474433,381.633231 378.46975,373.805613 373.145048,372.205569 C366.873984,370.320684 361.562279,372.330307 356.221136,374.663534 C343.429316,380.249294 336.880168,374.298173 324.606227,372.205569 C314.770634,370.528402 304.145624,370.683261 302.454297,381.540118 C300.677684,392.945063 313.02074,392.226171 318.898258,399.810958 C321.835989,403.601295 318.898253,414.757046 321.830847,418.08773 C325.890649,422.699683 329.094513,418.865129 324.606227,424.047793 C322.675483,426.277161 314.952508,432.451111 311.63356,431.374475 C309.219873,430.591934 302.309681,416.792064 299.939151,414.059854 C291.833931,404.717692 282.768991,395.875286 279.742892,383.678546 C276.395174,370.191281 276.187611,357.191433 287.929287,347.31558 Z">
                </animate>
            </path>
            <path fill="#2F70A0"
                d="M352.1 391.14c5 2.57 9.65 5.64 14.15 7.54 5.16 2.18 14.69 2.52 20 3.9 4.56 1.18-4.05 14.08-2.69 19.11 2.52 9.23 13.27 9.74 19.92 4.55 7.78-6.08 12.85-10.46 24.52-7.46.85-.34.52 8.16-.51 8.22-2.66-.25-4.84-1.3-6.45.1-2.21 1.9-3.62 4.28-5.55 6.4-7.45 8.18-17.68 15.28-29.26 14.14-27.56-2.71-28.94-35.68-34.14-56.5">
            </path>
            <path fill="#6E85FF"
                d="M368.8 471.96c.45-5.94-.88-13.72-1.3-19.38l-112.9.52c-1.33 2.29-1.87 15.43-.09 18.86H368.8zM494.7 471.96c.9-4.27-2.04-14.07-2.48-19l-82.71-.5c-.94 2.2-1.39 15.3-.29 19.5h85.49z">
            </path>
        </svg>