<svg width="490" height="490" viewBox="0 0 490 490" fill="none" xmlns="http://www.w3.org/2000/svg">
<path d="M383.2 324.2V322.7H384.7H397.6C421.672 322.7 441.3 303.072 441.3 279V99.2C441.3 75.1284 421.672 55.5 397.6 55.5H93.2C69.1284 55.5 49.5 75.1284 49.5 99.2V279C49.5 303.075 69.1304 322.697 93.0939 322.6H93.1H295.7H296.386L296.835 323.119L353.929 389.212C353.93 389.213 353.93 389.214 353.931 389.215C357.153 392.896 361.745 395 366.5 395C375.777 395 383.2 387.566 383.2 378.4V324.2Z" fill="white" stroke="#4FB3F6" stroke-width="3"/>
<path d="M59.6 306.7V305.2H58.1H45.2C21.1284 305.2 1.5 285.572 1.5 261.5V81.7C1.5 57.6284 21.1284 38 45.2 38H349.6C373.672 38 393.3 57.6284 393.3 81.7V261.5C393.3 285.575 373.67 305.197 349.706 305.1H349.7H147.1H146.414L145.965 305.619L88.8711 371.712C88.8704 371.713 88.8697 371.714 88.869 371.715C85.6466 375.396 81.0554 377.5 76.3 377.5C67.023 377.5 59.6 370.066 59.6 360.9V306.7Z" fill="white" stroke="#4FB3F6" stroke-width="3"/>
</svg>
